<?xml version="1.0" standalone="no"?>
<!DOCTYPE svg PUBLIC "-//W3C//DTD SVG 20010904//EN"
 "http://www.w3.org/TR/2001/REC-SVG-20010904/DTD/svg10.dtd">
<svg version="1.0" xmlns="http://www.w3.org/2000/svg"
 width="24.000000pt" height="24.000000pt" viewBox="0 0 24.000000 24.000000"
 preserveAspectRatio="xMidYMid meet">

<g transform="translate(0.000000,24.000000) scale(0.100000,-0.100000)"
fill="#000000" stroke="none">
<path d="M40 200 c-29 -29 -29 -131 0 -160 16 -16 33 -20 80 -20 82 0 100 18
100 100 0 82 -18 100 -100 100 -47 0 -64 -4 -80 -20z m134 0 c30 -11 43 -64
30 -119 -8 -31 -15 -37 -47 -45 -23 -6 -51 -6 -75 0 -31 8 -38 14 -46 45 -13
52 0 108 27 119 30 12 80 12 111 0z"/>
</g>
</svg>
